<svg width="272" height="128" viewBox="0 0 272 128" fill="none" xmlns="http://www.w3.org/2000/svg">
	<circle cx="136" cy="64" r="63.5" fill="#F5F3FF" stroke="#A78BFA"></circle>
	<path d="M133.333 64C133.333 65.4728 134.527 66.6667 136 66.6667C137.473 66.6667 138.667 65.4728 138.667 64C138.667 62.5272 137.473 61.3333 136 61.3333C134.527 61.3333 133.333 62.5272 133.333 64ZM136 64.5H137.969V63.5H136V64.5ZM141.906 64.5H145.844V63.5H141.906V64.5ZM149.781 64.5H153.719V63.5H149.781V64.5ZM157.656 64.5H161.594V63.5H157.656V64.5ZM165.531 64.5H169.469V63.5H165.531V64.5ZM173.406 64.5H177.344V63.5H173.406V64.5ZM181.281 64.5H185.219V63.5H181.281V64.5ZM189.156 64.5H193.094V63.5H189.156V64.5ZM197.031 64.5H199V63.5H197.031V64.5Z" fill="#A78BFA"></path>
	<path d="M136 128L136 -7.39098e-06" stroke="#A78BFA" stroke-dasharray="4 4"></path>
	<path d="M197.575 8.12926H196.024C195.964 7.79782 195.853 7.50615 195.691 7.25426C195.529 7.00237 195.33 6.78859 195.094 6.61293C194.859 6.43726 194.596 6.30469 194.304 6.2152C194.016 6.12571 193.709 6.08097 193.384 6.08097C192.798 6.08097 192.272 6.22846 191.808 6.52344C191.348 6.81842 190.983 7.25095 190.714 7.82102C190.449 8.3911 190.317 9.08712 190.317 9.90909C190.317 10.7377 190.449 11.437 190.714 12.0071C190.983 12.5772 191.349 13.008 191.813 13.2997C192.277 13.5914 192.799 13.7372 193.379 13.7372C193.701 13.7372 194.006 13.6941 194.294 13.608C194.586 13.5185 194.849 13.3875 195.085 13.2152C195.32 13.0429 195.519 12.8324 195.681 12.5838C195.847 12.3319 195.961 12.0436 196.024 11.7188L197.575 11.7237C197.492 12.2242 197.332 12.6849 197.093 13.1058C196.858 13.5234 196.554 13.8847 196.183 14.1896C195.815 14.4912 195.394 14.7249 194.92 14.8906C194.446 15.0563 193.929 15.1392 193.369 15.1392C192.488 15.1392 191.702 14.9304 191.013 14.5128C190.323 14.0919 189.78 13.4903 189.382 12.7081C188.988 11.9259 188.79 10.9929 188.79 9.90909C188.79 8.82197 188.989 7.88897 189.387 7.11008C189.785 6.32789 190.328 5.72798 191.018 5.31037C191.707 4.88944 192.491 4.67898 193.369 4.67898C193.91 4.67898 194.413 4.75687 194.881 4.91264C195.351 5.0651 195.774 5.29048 196.148 5.58878C196.523 5.88376 196.833 6.24503 197.078 6.67258C197.323 7.09683 197.489 7.58239 197.575 8.12926Z" fill="#7C3AED"></path>
	<path d="M165.999 59V51.3636H167.436V52.5767H167.516C167.655 52.1657 167.9 51.8426 168.251 51.6072C168.606 51.3686 169.007 51.2493 169.455 51.2493C169.547 51.2493 169.657 51.2526 169.783 51.2592C169.912 51.2659 170.013 51.2741 170.086 51.2841V52.706C170.026 52.6894 169.92 52.6712 169.768 52.6513C169.615 52.6281 169.463 52.6165 169.31 52.6165C168.959 52.6165 168.646 52.6911 168.371 52.8402C168.099 52.986 167.884 53.1899 167.724 53.4517C167.565 53.7102 167.486 54.0052 167.486 54.3366V59H165.999Z" fill="#7C3AED"></path>
	<path d="M125.858 35.1491C125.241 35.1491 124.691 34.9917 124.207 34.6768C123.727 34.3587 123.349 33.9062 123.074 33.3196C122.802 32.7296 122.666 32.022 122.666 31.1967C122.666 30.3714 122.804 29.6655 123.079 29.0788C123.357 28.4922 123.738 28.0431 124.222 27.7315C124.706 27.42 125.255 27.2642 125.868 27.2642C126.342 27.2642 126.723 27.3438 127.011 27.5028C127.303 27.6586 127.528 27.8409 127.688 28.0497C127.85 28.2585 127.976 28.4425 128.065 28.6016H128.155V24.8182H129.641V35H128.19V33.8118H128.065C127.976 33.9742 127.847 34.1598 127.678 34.3686C127.512 34.5774 127.283 34.7597 126.991 34.9155C126.7 35.0713 126.322 35.1491 125.858 35.1491ZM126.186 33.8814C126.614 33.8814 126.975 33.7687 127.27 33.5433C127.568 33.3146 127.794 32.9981 127.946 32.5938C128.102 32.1894 128.18 31.7187 128.18 31.1818C128.18 30.6515 128.103 30.1875 127.951 29.7898C127.799 29.392 127.575 29.0821 127.28 28.8601C126.985 28.638 126.62 28.527 126.186 28.527C125.739 28.527 125.366 28.643 125.067 28.875C124.769 29.107 124.544 29.4235 124.391 29.8246C124.242 30.2256 124.168 30.678 124.168 31.1818C124.168 31.6922 124.244 32.1513 124.396 32.5589C124.549 32.9666 124.774 33.2898 125.072 33.5284C125.374 33.7637 125.745 33.8814 126.186 33.8814Z" fill="#7C3AED"></path>
	<path d="M91.9787 76H90.348L94.0121 65.8182H95.7869L99.451 76H97.8203L94.9418 67.6676H94.8622L91.9787 76ZM92.2521 72.0128H97.5419V73.3054H92.2521V72.0128Z" fill="#7C3AED"></path>
</svg>